<?xml version="1.0" encoding="UTF-8" standalone="no"?>
<svg width="76px" height="76px" viewBox="0 0 76 76" version="1.1" xmlns="http://www.w3.org/2000/svg" xmlns:xlink="http://www.w3.org/1999/xlink" xmlns:sketch="http://www.bohemiancoding.com/sketch/ns">
    <!-- Generator: Sketch 3.2.2 (9983) - http://www.bohemiancoding.com/sketch -->
    <title>Group</title>
    <desc>Created with Sketch.</desc>
    <defs></defs>
    <g id="Page-1" stroke="none" stroke-width="1" fill="none" fill-rule="evenodd" sketch:type="MSPage">
        <g id="Group" sketch:type="MSLayerGroup">
            <circle id="Oval-3" fill="#FFC778" sketch:type="MSShapeGroup" cx="38" cy="38" r="38"></circle>
            <path d="M35.1136065,38 C35.1136065,35.9349254 33.6344124,33.649293 32.2820311,31.168272 C28.0720532,23.4448268 20,15 20,15 L38.5,15 L57,15 C57,15 42.997488,30.7597543 42.997488,38 C42.997488,46.0930876 57,61 57,61 C57,61 44.903487,61.0000017 38.5,61.0000017 C32.5701536,61.0000017 20,61 20,61 C20,61 35.1136065,44.8396591 35.1136065,38 Z" id="Rectangle-25" stroke="#FFFFFF" sketch:type="MSShapeGroup"></path>
            <path d="M32.0706688,27.2316447 C30.7421753,25.4642687 31.4660054,24.0315273 33.6577902,24.0315273 L43.6511919,24.0315273 C45.9184079,24.0315273 46.6531674,25.4910121 45.2897119,27.2948325 L38.685611,36.0319069 L32.0706688,27.2316447 Z" id="Path-8" fill="#FFFFFF" sketch:type="MSShapeGroup"></path>
            <path d="M27.9123555,46.8499836 C26.3657149,45.2759811 26.9003183,44 29.1044974,44 L48.2734612,44 C50.5352792,44 51.0246538,45.2506716 49.3755592,46.7964018 C49.3755592,46.7964018 47.4774409,48.5325467 46.9638789,49.1360765 C44.3926608,52.1577307 38.8685434,58 38.8685434,58 L27.9123555,46.8499836 Z" id="Path-9" fill="#FFFFFF" sketch:type="MSShapeGroup" transform="translate(38.689698, 51.000000) scale(1, -1) translate(-38.689698, -51.000000) "></path>
        </g>
    </g>
</svg>