<?xml version="1.0" encoding="UTF-8" standalone="no"?>
<svg width="86px" height="33px" viewBox="0 0 86 33" version="1.1" xmlns="http://www.w3.org/2000/svg" xmlns:xlink="http://www.w3.org/1999/xlink" xmlns:sketch="http://www.bohemiancoding.com/sketch/ns">
    <!-- Generator: Sketch 3.2.2 (9983) - http://www.bohemiancoding.com/sketch -->
    <title>Rectangle 3 + Path 2</title>
    <desc>Created with Sketch.</desc>
    <defs></defs>
    <g id="Page-1" stroke="none" stroke-width="1" fill="none" fill-rule="evenodd" sketch:type="MSPage">
        <g id="Rectangle-3-+-Path-2" sketch:type="MSLayerGroup" transform="translate(0.898785, 0.218062)">
            <rect id="Rectangle-3" fill="#33A4A8" sketch:type="MSShapeGroup" x="0" y="0" width="30.6713781" height="32.0242291" rx="4"></rect>
            <path d="M17.2086659,3.02826202 C18.3103656,3.02826202 19.2034697,3.91794191 19.2034697,5.01877401 L19.2034697,10.3164409 C19.2034697,11.4157704 20.0926456,12.306953 21.2008311,12.306953 L25.8178896,12.3069531 C26.9210018,12.3069531 27.815251,13.2071943 27.815251,14.3141364 L27.815251,18.0159145 C27.815251,19.1244512 26.9260751,20.0230978 25.8178896,20.0230978 L21.2008311,20.0230979 C20.0977189,20.023098 19.2034697,20.9162552 19.2034697,22.0144685 L19.2034697,27.0045966 C19.2034697,28.1044001 18.3120148,28.9959671 17.2086659,28.9959671 L13.2931208,28.9959671 C12.191421,28.9959671 11.2983169,28.1028099 11.2983169,27.0045966 L11.2983169,22.0144685 C11.2983169,20.9146649 10.3948547,20.0230981 9.29763578,20.0230981 L4.85680826,20.0230984 C3.75186258,20.0230985 2.85612712,19.1228573 2.85612712,18.0159151 L2.85612712,14.3141366 C2.85612712,13.2055998 3.75958931,12.3069532 4.85680826,12.3069531 L9.29763578,12.306953 C10.4025815,12.306953 11.2983169,11.417273 11.2983169,10.3164409 L11.2983169,5.01877401 C11.2983169,3.91944459 12.1897719,3.02826202 13.2931208,3.02826202 L17.2086659,3.02826202 Z" id="Path-2" fill="#FFFFFF" sketch:type="MSShapeGroup"></path>
            <g id="Rectangle-4-+-Rectangle-11" transform="translate(58.374558, 11.363436)" fill="#FFFFFF" sketch:type="MSShapeGroup">
                <rect id="Rectangle-11" x="0" y="0" width="26.7137809" height="10.3303965" rx="4"></rect>
            </g>
            <g id="Rectangle-4-+-Rectangle-13" transform="translate(54.416961, 0.000000)" sketch:type="MSShapeGroup">
                <rect id="Rectangle-4" fill="#33A4A8" x="0" y="0" width="30.6713781" height="32.0242291" rx="4"></rect>
                <rect id="Rectangle-11" fill="#FFFFFF" x="1.97879859" y="10.3303965" width="26.7137809" height="11.3634361" rx="4"></rect>
            </g>
        </g>
    </g>
</svg>