<?xml version="1.0" encoding="utf-8"?>
<!-- Generator: Adobe Illustrator 18.1.1, SVG Export Plug-In . SVG Version: 6.00 Build 0)  -->
<svg version="1.1" id="Layer_1" xmlns="http://www.w3.org/2000/svg" xmlns:xlink="http://www.w3.org/1999/xlink" x="0px" y="0px"
	 viewBox="0 0 313 253" enable-background="new 0 0 313 253" xml:space="preserve">
<path fill="#33A4A8" d="M301,253H13c-6.6,0-12-5.4-12-12V12C1,5.4,6.4,0,13,0h288c6.6,0,12,5.4,12,12v229
	C313,247.6,307.6,253,301,253z"/>
<path fill="#FFFFFF" d="M252,155H62c-6.6,0-12-5.4-12-12v-33c0-6.6,5.4-12,12-12h190c6.6,0,12,5.4,12,12v33
	C264,149.6,258.6,155,252,155z"/>
</svg>
